<?xml version="1.0" standalone="no"?><!DOCTYPE svg PUBLIC "-//W3C//DTD SVG 1.1//EN" "http://www.w3.org/Graphics/SVG/1.1/DTD/svg11.dtd"><svg t="1754536381750" class="icon" viewBox="0 0 1024 1024" version="1.1" xmlns="http://www.w3.org/2000/svg" p-id="12438" xmlns:xlink="http://www.w3.org/1999/xlink" width="200" height="200"><path d="M512 512m-435.05 0a435.05 435.05 0 1 0 870.1 0 435.05 435.05 0 1 0-870.1 0Z" fill="#2C3D71" p-id="12439"></path><path d="M512 960C265 960 64 759 64 512S265 64 512 64s448 201 448 448-201 448-448 448z m0-870.1C279.25 89.9 89.9 279.25 89.9 512S279.25 934.1 512 934.1 934.1 744.75 934.1 512 744.75 89.9 512 89.9z" fill="#1B1E3B" p-id="12440"></path><path d="M341.2 514.89a229.35 229.35 0 0 1 62.45-88.58 161.63 161.63 0 0 1 48.12-29.15 128.79 128.79 0 0 1 56.82-8c19.27 1.69 37.73 7.69 54.54 16.06 4.13 2.23 8.31 4.39 12.37 6.7l11.64 7.69c7.9 4.93 14.64 11.28 21.85 17 27.42 24.48 49.68 53.39 67.8 84.39-25-25.82-50.11-51-78-71.85-28-20.36-59.11-36.4-92-39.36a120.1 120.1 0 0 0-48.59 5.76c-15.85 5-30.64 13.5-44.65 23.35-27.68 20.29-51.66 46.76-72.35 75.99z" fill="#FFFFFF" p-id="12441"></path><path d="M634.39 479.11c-170.91 49-262.84 6.16-268 3.63A294.16 294.16 0 0 1 413.65 439c14-9.89 28.8-18.33 44.64-23.36a120.21 120.21 0 0 1 48.58-5.8c32.84 3 64 19 91.93 39.36a461.15 461.15 0 0 1 35.59 29.91z" fill="#8DA0B7" p-id="12442"></path><path d="M525.09 703.31c-66.45 0-121.85-13.25-138.14-18.86-58-20-103.2-57.54-186-154.57l-20.48-24 30.73 7.19c3.67 0.86 369.23 84.65 615.69-14l28.66-11.47-15.94 26.44c-3.54 5.87-88.06 144.08-208.39 176.25-35.79 9.6-72.38 13.02-106.13 13.02zM236.82 539.64c75.61 85.73 113.31 110.21 156.88 125.23 34.58 11.91 141 29.82 232.16 5.45 81.6-21.82 147.76-99.51 178.08-140.76-209.62 69.89-477.38 27.61-567.12 10.08z" fill="#FFFFFF" p-id="12443"></path><path d="M783.91 385.11c-22 37.89-45.63 74.6-69.86 110.88-12 18.25-24.52 36.07-36.79 54.1l-37.73 53.41-38.64 52.77c-13.2 17.36-26.08 34.95-39.6 52.08-26.7 34.5-54 68.58-83 101.45 22-37.91 45.6-74.62 69.83-110.89 11.95-18.26 24.53-36.06 36.8-54.09l37.76-53.4 38.66-52.75c13.19-17.37 26.09-34.94 39.6-52.08C727.68 452.08 755 418 783.91 385.11z" fill="#FFFFFF" p-id="12444"></path></svg>