<?xml version="1.0" standalone="no"?><!DOCTYPE svg PUBLIC "-//W3C//DTD SVG 1.1//EN" "http://www.w3.org/Graphics/SVG/1.1/DTD/svg11.dtd"><svg t="1754536445968" class="icon" viewBox="0 0 1024 1024" version="1.1" xmlns="http://www.w3.org/2000/svg" p-id="13527" xmlns:xlink="http://www.w3.org/1999/xlink" width="200" height="200"><path d="M940.693333 512.682667c-1.322667 0.810667-2.474667 0.64-3.541333 0.682666-27.733333 0.874667-55.445333 0.746667-83.072-2.346666-9.664-1.088-19.178667-3.264-28.928-3.776-5.802667-0.32-11.562667-0.085333-17.344 0.789333-6.336 0.938667-12.778667 0.128-19.178667 0.405333-6.378667 0.277333-12.672 1.365333-18.965333 2.368-1.514667 0.234667-3.029333 0.597333-4.544 0.618667-9.194667 0.170667-18.410667-0.234667-27.584 0.874667-7.616 0.917333-15.104 2.410667-22.613333 3.946666-7.338667 1.493333-14.528 3.648-21.994667 4.544-2.858667 0.341333-5.632 1.344-8.469333 1.941334-4.416 0.938667-8.853333 1.792-13.269334 2.666666-3.562667 0.704-6.570667 2.794667-10.368 3.776 1.450667 1.664 2.709333 3.093333 3.968 4.522667 1.088 1.237333 2.048 2.730667 2.005334 4.330667-0.192 4.970667 1.408 9.749333 1.386666 14.72-0.106667 32.256-0.661333 64.512 0.064 96.768 1.301333 57.322667 0.170667 114.645333 0.64 171.968 0.021333 1.472 0.234667 2.837333 1.088 4.117333 1.28 1.962667 1.813333 4.16 1.792 6.549333-0.170667 15.168 0.533333 30.357333 0.256 45.525334-0.064 3.626667-0.917333 6.698667-2.176 10.026666-1.898667 4.992-2.88 10.325333-2.752 15.765334 0.085333 3.392-0.810667 6.549333-2.816 9.365333-2.325333 3.285333-1.621333 7.232-2.197333 10.901333-0.32 1.984-0.682667 4.096-2.026667 5.418667-2.517333 2.474667-2.922667 5.482667-3.114666 8.64-0.128 2.133333-0.704 3.925333-2.197334 5.546667-1.408 1.536-2.133333 3.434667-2.176 5.610666-0.021333 1.28-0.213333 2.624-1.237333 3.541334-4.181333 3.712-6.613333 9.109333-11.562667 12.074666-0.938667 0.576-1.856 1.216-2.837333 1.706667-1.045333 0.512-2.517333 0.661333-3.157333-0.149333-2.133333-2.752-5.717333-3.861333-7.466667-6.954667-0.341333-0.597333-0.554667-1.28-1.28-1.514667-4.629333-1.578667-6.613333-5.824-9.429333-9.28-2.517333-3.093333-5.333333-5.952-8.064-8.853333-2.688-2.858667-4.288-6.442667-6.549334-9.6-0.853333-1.194667-1.344-2.709333-2.410666-3.84-3.349333-3.584-5.568-7.872-7.36-12.373333-0.576-1.408-1.514667-2.474667-2.688-3.328-1.856-1.344-2.794667-3.178667-3.114667-5.354667-0.170667-1.109333-0.298667-2.218667-1.28-2.944-2.090667-1.557333-3.050667-3.818667-3.818667-6.208-0.192-0.554667-0.256-1.365333-0.661333-1.621333-4.330667-2.645333-3.584-8.661333-7.701333-11.434667-0.746667-0.512-0.682667-1.536-0.64-2.389333 0.170667-3.413333 0.042667-6.805333-0.298667-10.218667-0.341333-3.349333 1.429333-4.864 4.757333-4.416 3.306667 0.448 6.634667 0.170667 9.962667 0.170667 7.914667 0 15.850667-0.021333 23.765333-0.042667 0.597333 0 1.365333 0.085333 1.728-0.256 2.602667-2.261333 6.4-3.285333 7.36-7.274667 0.618667-2.496 2.176-4.629333 3.349334-6.890666 5.098667-9.792 6.848-20.437333 8.341333-31.232 1.962667-14.250667 1.578667-28.608 2.410667-42.901334 3.264-55.68 1.877333-111.402667 0.469333-167.104-0.405333-15.722667-1.770667-31.36-6.570667-46.485333-2.581333-8.149333-5.44-16.192-10.005333-23.488-1.301333-2.090667-1.194667-4.394667-1.152-6.698667 0.192-8.682667-2.389333-11.584-10.944-10.282666-20.821333 3.178667-41.898667 2.922667-62.805333 5.077333-25.706667 2.666667-50.730667 8.554667-74.666667 18.048-17.322667 6.869333-33.322667 16.554667-45.973333 30.784-2.282667 2.56-4.864 5.034667-5.824 8.554667-0.213333 0.789333-0.661333 1.749333-1.301334 2.154666-2.858667 1.792-3.306667 4.544-3.456 7.530667-0.448 8.896-2.24 17.514667-4.266666 26.176-1.877333 8-2.965333 16.256-4.672 24.341333-4.074667 19.370667-8.256 38.72-11.072 58.325334-1.045333 7.274667-3.904 14.122667-5.824 21.205333-3.946667 14.656-7.701333 29.376-11.050667 44.181333-5.290667 23.402667-13.504 45.781333-23.018667 67.754667-3.178667 7.36-6.293333 14.741333-9.514666 22.101333-2.090667 4.757333-2.922667 9.962667-5.312 14.634667-0.789333 1.536-1.642667 2.816-2.965334 4.010667-2.304 2.069333-4.522667 4.352-6.250666 6.912-2.24 3.328-5.632 5.290667-8.384 8-0.746667 0.746667-1.941333 1.130667-2.538667 2.069333-1.706667 2.645333-4.458667 3.434667-7.232 3.754667-3.498667 0.426667-6.890667 0.917333-10.133333 2.389333-2.56 1.152-3.989333 0.362667-4.16-2.474667-0.341333-5.269333-0.298667-10.56 0.341333-15.808 0.277333-2.368 1.109333-4.586667 2.794667-6.442666 1.685333-1.877333 2.645333-4.138667 2.816-6.72 0.277333-4.074667 2.794667-7.488 3.541333-11.434667 0.746667-3.946667 1.536-7.893333 4.778667-10.752 0.384-0.341333 0.448-1.088 0.554666-1.664 0.32-1.770667 0.192-3.733333 0.96-5.269333 2.730667-5.418667 3.136-11.797333 7.061334-16.704 0.426667-0.512 0.874667-1.130667 0.981333-1.770667 1.856-10.133333 6.762667-19.093333 10.816-28.373333 7.189333-16.512 14.634667-32.896 20.010667-50.112 2.901333-9.301333 4.821333-18.858667 7.509333-28.181334 9.28-32.298667 14.464-65.429333 20.16-98.453333 1.429333-8.32 2.538667-16.704 2.538667-25.194667 0-8.277333-1.557333-10.069333-9.685334-11.456-2.368-0.405333-4.586667-0.298667-6.698666 0.832-1.962667 1.045333-4.16 0.896-6.272 0.981334-6.805333 0.341333-13.290667 2.282667-19.733334 4.053333-21.205333 5.866667-43.029333 8.298667-64.576 12.224-32.682667 5.952-65.066667 13.12-96.384 24.490667-6.101333 2.218667-12.586667 3.008-18.858666 4.586666-7.637333 1.92-15.338667 3.2-23.104 4.330667-3.114667 0.448-6.208 1.173333-9.386667 1.088-0.490667-0.021333-1.088 0.042667-1.472 0.32-3.2 2.282667-6.954667 2.154667-10.581333 2.389333-15.957333 0.981333-31.658667-1.301333-47.317334-4.053333-1.621333-0.277333-2.645333-1.365333-3.712-2.517333-2.368-2.517333-4.309333-5.461333-7.36-7.36-1.706667-1.066667-2.496-2.773333-1.706666-4.885334 0.789333-2.090667 2.453333-2.048 4.352-2.197333 6.208-0.490667 12.394667 0.106667 18.602666 0.170667 2.048 0.021333 4.032 0.256 5.525334 1.578666 2.602667 2.282667 5.76 2.837333 8.938666 3.434667 11.882667 2.218667 23.573333 0.832 35.264-1.728 13.12-2.88 25.792-7.189333 38.528-11.349333 13.376-4.394667 26.730667-8.789333 40.384-12.330667 6.421333-1.664 12.672-3.968 18.794667-6.570667 2.026667-0.853333 4.16-1.578667 6.314667-2.090666 12.309333-2.986667 24.384-7.061333 36.949333-9.045334 3.2-0.512 6.357333-1.344 9.450667-2.282666 18.133333-5.461333 36.224-11.093333 54.357333-16.512 14.997333-4.48 26.624-13.482667 35.690667-26.069334 3.84-5.333333 7.786667-10.581333 10.986666-16.341333 1.834667-3.285333 3.925333-6.762667 4.16-10.368 0.362667-5.44 1.216-10.794667 1.557334-16.234667 0.704-11.050667 1.834667-22.08 2.773333-33.109333 0.064-0.768 0.32-1.578667 0.149333-2.282667-2.410667-10.368-1.429333-20.906667-1.365333-31.338666 0.106667-14.144-3.072-27.946667-3.434667-42.026667-0.234667-9.386667-1.578667-18.688-2.986666-27.989333-2.133333-14.101333-7.722667-27.029333-13.44-39.893334-2.730667-6.144-4.778667-12.586667-8.064-18.496-1.088-1.962667-1.472-4.181333-1.92-6.336-0.362667-1.664-0.704-3.242667-1.706667-4.736-1.472-2.197333-0.576-3.690667 2.026667-3.946666 2.666667-0.256 4.970667 0.362667 7.146666 2.069333 2.944 2.325333 5.525333 5.333333 8.64 7.104 3.52 1.984 5.696 5.098667 8.149334 7.744 4.288 4.586667 9.002667 8.853333 12.629333 14.101333 3.946667 5.696 7.637333 11.52 11.221333 17.450667 1.749333 2.922667 2.730667 6.378667 5.845334 8.725333 3.136 2.346667 2.858667 6.592 2.922666 10.24 0.106667 5.632-0.064 11.264-0.064 16.896 0 33.706667 0.042667 67.413333-0.042666 101.12-0.021333 9.024 0.938667 17.834667 4.202666 26.304 1.024 2.645333 0.597333 5.397333 0.597334 8.106667 0.021333 3.392 0.554667 6.357333 3.541333 8.576 2.218667 1.664 0.405333 3.946667 0.298667 5.930667-0.042667 1.002667-0.298667 1.92 0.021333 2.965333 0.533333 1.706667 1.536 2.389333 3.221333 1.749333 0.597333-0.234667 1.088-0.426667 1.642667-0.021333 3.712 2.730667 8.042667 2.24 12.245333 2.282667 4.928 0.042667 9.877333-0.298667 14.762667 0.938666 1.024 0.256 2.304 0.256 3.285333-0.128 3.669333-1.450667 7.616-1.6 11.328-2.752 2.304-0.704 4.629333-1.130667 7.04-1.194666 6.848-0.149333 13.525333-1.770667 20.288-2.624 11.797333-1.472 23.616-2.048 35.477334-2.368 22.016-0.576 42.069333-7.189333 60.096-19.861334 0.981333-0.704 2.026667-1.216 3.2-1.514666 0.661333-0.170667 1.514667-0.277333 1.877333-0.725334 2.389333-2.986667 6.037333-4.224 8.917333-6.549333 3.541333-2.837333 6.677333-5.994667 9.770667-9.237333 0.490667-0.533333 1.301333-0.810667 2.005333-1.088 1.258667-0.448 1.962667-1.322667 2.112-2.624 0.192-1.728 0.725333-3.413333 1.728-4.757334 2.090667-2.794667 2.282667-5.994667 2.282667-9.258666 0.042667-23.722667-0.042667-47.424 0.085333-71.146667 0.128-21.589333 0.554667-43.178667 2.624-64.682667 1.173333-12.138667 3.477333-24.170667 3.712-36.394666 0.106667-5.802667 0.128-11.605333 0.170667-17.408 0-1.557333 0.085333-3.114667 0.832-4.48 2.538667-4.714667 0.789333-8.533333-2.368-12.117334-0.618667-0.704-1.450667-1.28-1.856-2.090666-1.664-3.242667-4.522667-4.288-7.850667-4.202667-5.781333 0.170667-11.648-0.661333-17.344 0.597333-10.922667 2.389333-22.058667 3.328-32.981333 5.738667-10.496 2.325333-20.48 5.888-30.336 9.984-1.173333 0.490667-2.325333 1.109333-3.626667 1.130667-1.962667 0.042667-3.562667-0.64-4.224-2.624-1.322667-3.989333-1.472-8.106667-0.362666-12.074667 0.64-2.325333 2.688-4.010667 4.885333-4.928 3.968-1.664 7.552-3.904 11.136-6.250667 5.504-3.626667 11.264-6.784 17.045333-9.92 2.282667-1.237333 4.842667-1.6 7.232-2.432 8.106667-2.816 16.298667-5.354667 24.490667-7.936 12.416-3.904 24.874667-3.605333 37.376-0.512 2.24 0.554667 4.650667 0.618667 6.698667 1.536 16.554667 7.381333 28.032 19.306667 32.554666 37.226667 0.704 2.752 0.597333 5.589333-0.042666 8.384-1.962667 8.661333-2.709333 17.557333-4.650667 26.197333-1.898667 8.448-2.261333 17.045333-3.093333 25.6-0.341333 3.477333-2.538667 6.08-3.050667 9.386667-0.448 2.901333-0.554667 5.717333-0.426667 8.64 0.362667 7.850667 0.298667 15.68-1.173333 23.445333-0.277333 1.514667-0.832 2.922667-1.578667 4.309334-2.026667 3.712-1.386667 7.850667-1.514666 11.818666-0.490667 17.749333-0.512 35.477333-0.64 53.226667-0.042667 6.954667-1.237333 13.888-1.877334 20.821333-0.64 6.805333-0.704 13.610667-0.64 20.437334 0.021333 3.264 5.76 9.258667 9.045334 9.322666 5.290667 0.106667 10.517333 1.024 15.829333 0.768 22.229333-1.045333 44.48-1.749333 66.645333-3.946666 2.453333-0.234667 4.928-0.32 7.402667-0.384 4.693333-0.149333 9.322667-0.469333 13.952-1.429334 6.698667-1.408 13.589333-1.088 20.416-1.194666 13.141333-0.192 26.261333 0.725333 39.402667 1.216 17.173333 0.661333 34.282667-0.085333 51.328-2.496 2.090667-0.298667 4.032-0.149333 6.016 0.554666 7.317333 2.645333 14.741333 5.184 21.290666 9.28 4.010667 2.517333 8.832 3.904 11.882667 8.384 1.728 2.538667 4.736 4.8 7.893333 6.229334 0.704 0.32 1.514667 0.661333 1.770667 1.386666 1.621333 4.288 5.546667 6.741333 8.128 10.261334 2.688 3.541333 5.888 6.656 10.133333 8.96z" p-id="13528"></path><path d="M409.962667 265.557333c2.88-2.282667 4.501333-4.885333 7.36-6.058666 0.874667-0.362667 1.344-0.981333 1.728-1.749334 0.469333-0.938667 1.088-1.813333 2.026666-2.24 1.557333-0.704 2.261333-2.218667 3.370667-3.264 2.517333-2.346667 4.181333-5.504 7.210667-7.317333 0.426667-0.256 1.002667-0.554667 1.130666-0.96 1.152-3.413333 4.437333-5.013333 6.570667-7.616 6.165333-7.488 12.778667-14.613333 20.565333-20.586667 14.122667-10.837333 25.429333-24.149333 34.282667-39.594666 2.581333-4.501333 5.482667-8.853333 8.256-13.248 2.346667-3.712 4.096-7.658667 4.693333-12.074667 0.64-4.757333-0.682667-8.682667-4.864-11.242667-3.008-1.834667-4.8-4.16-5.568-7.765333-0.896-4.245333-3.306667-7.893333-6.784-10.709333-0.874667-0.704-1.066667-1.706667-1.237333-2.709334-0.384-2.176-0.533333-4.437333-1.216-6.528-0.661333-2.026667 0.128-2.581333 1.834667-2.901333 5.781333-1.045333 11.562667-0.661333 17.344-0.277333 7.466667 0.490667 13.717333 3.541333 19.285333 8.469333 9.792 8.661333 16.704 19.050667 20.032 31.765333 2.496 9.536 0.682667 18.090667-5.696 25.621334-4.970667 5.866667-10.368 11.328-15.829333 16.725333-10.474667 10.304-20.117333 21.354667-29.738667 32.448-2.730667 3.157333-5.994667 5.717333-9.152 8.426667-2.773333 2.389333-5.952 4.309333-8.554667 7.018666-2.773333 2.88-6.293333 5.184-9.578666 7.594667-16.469333 12.053333-34.794667 18.88-55.402667 19.008-0.405333-0.042667-0.810667-0.106667-2.069333-0.234667zM467.114667 612.202667c0.085333-1.536 0.512-3.157333 1.6-4.394667 1.6-1.834667 3.498667-3.349333 4.373333-5.802667 0.448-1.258667 1.898667-0.853333 2.986667-0.768 14.08 1.045333 26.688 6.784 38.954666 13.056 10.901333 5.589333 18.922667 14.762667 26.069334 24.533334 5.504 7.552 9.365333 16.021333 12.928 24.661333 1.024 2.517333 0.554667 4.458667-1.109334 6.293333-1.429333 1.578667-2.922667 3.093333-3.989333 4.970667-0.746667 1.301333-1.813333 1.237333-3.093333 0.832-15.68-4.885333-29.973333-12.373333-42.368-23.168-9.962667-8.682667-19.178667-18.218667-28.565334-27.52-1.92-1.92-3.648-4.074667-5.312-6.208-1.493333-1.877333-2.432-3.968-2.474666-6.485333zM528.576 415.36c-17.962667-1.728-35.712-4.650667-52.650667-11.072-7.04-2.666667-14.229333-5.290667-20.224-10.197333-2.389333-1.962667-4.672-3.968-6.336-6.613334-1.301333-2.069333-3.029333-3.669333-5.354666-4.544-1.109333-0.405333-1.941333-1.066667-2.069334-2.346666-0.128-1.386667 0.896-2.133333 1.877334-2.453334 4.053333-1.344 5.930667-4.8 8.064-8.021333 1.088-1.642667 2.517333-2.645333 4.522666-1.813333 12.224 5.034667 25.109333 8.277333 37.013334 14.122666 8.725333 4.288 17.194667 9.066667 25.472 14.165334 6.144 3.776 10.453333 9.194667 13.589333 15.616 1.408 2.88 1.237333 3.136-1.877333 3.178666-0.661333 0-1.344-0.021333-2.026667-0.021333z" p-id="13529"></path></svg>